ffmpeg version 3.4.8-0ubuntu0.2 Copyright (c) 2000-2020 the FFmpeg developers
  built with gcc 7 (Ubuntu 7.5.0-3ubuntu1~18.04)
  configuration: --prefix=/usr --extra-version=0ubuntu0.2 --toolchain=hardened --libdir=/usr/lib/x86_64-linux-gnu --incdir=/usr/include/x86_64-linux-gnu --enable-gpl --disable-stripping --enable-avresample --enable-avisynth --enable-gnutls --enable-ladspa --enable-libass --enable-libbluray --enable-libbs2b --enable-libcaca --enable-libcdio --enable-libflite --enable-libfontconfig --enable-libfreetype --enable-libfribidi --enable-libgme --enable-libgsm --enable-libmp3lame --enable-libmysofa --enable-libopenjpeg --enable-libopenmpt --enable-libopus --enable-libpulse --enable-librubberband --enable-librsvg --enable-libshine --enable-libsnappy --enable-libsoxr --enable-libspeex --enable-libssh --enable-libtheora --enable-libtwolame --enable-libvorbis --enable-libvpx --enable-libwavpack --enable-libwebp --enable-libx265 --enable-libxml2 --enable-libxvid --enable-libzmq --enable-libzvbi --enable-omx --enable-openal --enable-opengl --enable-sdl2 --enable-libdc1394 --enable-libdrm --enable-libiec61883 --enable-chromaprint --enable-frei0r --enable-libopencv --enable-libx264 --enable-shared
  libavutil      55. 78.100 / 55. 78.100
  libavcodec     57.107.100 / 57.107.100
  libavformat    57. 83.100 / 57. 83.100
  libavdevice    57. 10.100 / 57. 10.100
  libavfilter     6.107.100 /  6.107.100
  libavresample   3.  7.  0 /  3.  7.  0
  libswscale      4.  8.100 /  4.  8.100
  libswresample   2.  9.100 /  2.  9.100
  libpostproc    54.  7.100 / 54.  7.100
[mpeg @ 0x564175c4e000] start time for stream 0 is not set in estimate_timings_from_pts
Input #0, mpeg, from '../.././Samples/matrixbench_mpeg2.mpg':
  Duration: 00:03:07.66, start: 0.220000, bitrate: 5633 kb/s
    Stream #0:0[0x1bf]: Data: dvd_nav_packet
    Stream #0:1[0x1e0]: Video: mpeg2video (Main), yuv420p(tv, bt470bg/bt470m/bt470m, bottom first), 720x576 [SAR 16:15 DAR 4:3], 25 fps, 25 tbr, 90k tbn, 50 tbc
    Stream #0:2[0x1c0]: Audio: mp2, 48000 Hz, stereo, s16p, 384 kb/s
Stream mapping:
  Stream #0:1 -> #0:0 (mpeg2video (native) -> h264 (libx264))
  Stream #0:2 -> #0:1 (mp2 (native) -> aac (native))
Press [q] to stop, [?] for help
[libx264 @ 0x5641760bea00] using SAR=16/15
[libx264 @ 0x5641760bea00] using cpu capabilities: MMX2 SSE2Fast SSSE3 SSE4.2 AVX FMA3 BMI2 AVX2
[libx264 @ 0x5641760bea00] profile High, level 3.0
[libx264 @ 0x5641760bea00] 264 - core 152 r2854 e9a5903 - H.264/MPEG-4 AVC codec - Copyleft 2003-2017 - http://www.videolan.org/x264.html - options: cabac=1 ref=3 deblock=1:0:0 analyse=0x3:0x113 me=hex subme=7 psy=1 psy_rd=1.00:0.00 mixed_ref=1 me_range=16 chroma_me=1 trellis=1 8x8dct=1 cqm=0 deadzone=21,11 fast_pskip=1 chroma_qp_offset=-2 threads=6 lookahead_threads=1 sliced_threads=0 nr=0 decimate=1 interlaced=0 bluray_compat=0 constrained_intra=0 bframes=3 b_pyramid=2 b_adapt=1 b_bias=0 direct=1 weightb=1 open_gop=0 weightp=2 keyint=250 keyint_min=25 scenecut=40 intra_refresh=0 rc_lookahead=40 rc=crf mbtree=1 crf=23.0 qcomp=0.60 qpmin=0 qpmax=69 qpstep=4 ip_ratio=1.40 aq=1:1.00
Output #0, mov, to '/home/aleksandr/Pract/Samples/matrixbench_mpeg2.mpg_tc/output_tc1.mov':
  Metadata:
    encoder         : Lavf57.83.100
    Stream #0:0: Video: h264 (libx264) (avc1 / 0x31637661), yuv420p, 720x576 [SAR 16:15 DAR 4:3], q=-1--1, 25 fps, 12800 tbn, 25 tbc
    Metadata:
      encoder         : Lavc57.107.100 libx264
    Side data:
      cpb: bitrate max/min/avg: 0/0/0 buffer size: 0 vbv_delay: -1
    Stream #0:1: Audio: aac (LC) (mp4a / 0x6134706D), 48000 Hz, stereo, fltp, 128 kb/s
    Metadata:
      encoder         : Lavc57.107.100 aac
frame=   88 fps=0.0 q=28.0 size=       0kB time=00:00:03.34 bitrate=   0.1kbits/s speed=6.64x    frame=  150 fps=148 q=28.0 size=     256kB time=00:00:05.84 bitrate= 358.8kbits/s speed=5.77x    frame=  206 fps=136 q=28.0 size=     512kB time=00:00:08.06 bitrate= 520.2kbits/s speed=5.33x    frame=  212 fps= 69 q=28.0 size=     512kB time=00:00:08.32 bitrate= 504.2kbits/s speed=2.72x    frame=  220 fps= 48 q=28.0 size=     512kB time=00:00:08.66 bitrate= 484.3kbits/s speed=1.88x    frame=  229 fps= 43 q=28.0 size=     512kB time=00:00:09.00 bitrate= 465.9kbits/s speed=1.67x    frame=  294 fps= 50 q=28.0 size=     768kB time=00:00:11.56 bitrate= 544.1kbits/s speed=1.96x    frame=  360 fps= 56 q=28.0 size=    1024kB time=00:00:14.25 bitrate= 588.7kbits/s speed=2.23x    frame=  431 fps= 63 q=28.0 size=    1280kB time=00:00:17.06 bitrate= 614.4kbits/s speed=2.48x    frame=  493 fps= 67 q=28.0 size=    1280kB time=00:00:19.49 bitrate= 537.8kbits/s speed=2.64x    frame=  556 fps= 70 q=28.0 size=    1536kB time=00:00:22.05 bitrate= 570.4kbits/s speed=2.79x    frame=  621 fps= 74 q=28.0 size=    1792kB time=00:00:24.66 bitrate= 595.3kbits/s speed=2.93x    frame=  686 fps= 77 q=28.0 size=    2048kB time=00:00:27.28 bitrate= 614.9kbits/s speed=3.06x    frame=  746 fps= 79 q=28.0 size=    2304kB time=00:00:29.65 bitrate= 636.5kbits/s speed=3.15x    frame=  801 fps= 81 q=28.0 size=    2560kB time=00:00:31.85 bitrate= 658.4kbits/s speed=3.21x    frame=  853 fps= 82 q=28.0 size=    2816kB time=00:00:33.96 bitrate= 679.2kbits/s speed=3.26x    frame=  914 fps= 84 q=28.0 size=    3072kB time=00:00:36.39 bitrate= 691.5kbits/s speed=3.33x    frame=  963 fps= 84 q=28.0 size=    3328kB time=00:00:38.37 bitrate= 710.4kbits/s speed=3.35x    frame= 1016 fps= 85 q=28.0 size=    3584kB time=00:00:40.53 bitrate= 724.4kbits/s speed=3.39x    frame= 1067 fps= 86 q=28.0 size=    3840kB time=00:00:42.51 bitrate= 739.9kbits/s speed=3.41x    frame= 1119 fps= 86 q=28.0 size=    4096kB time=00:00:44.58 bitrate= 752.6kbits/s speed=3.44x    frame= 1189 fps= 88 q=28.0 size=    4352kB time=00:00:47.40 bitrate= 752.1kbits/s speed=3.52x    frame= 1241 fps= 89 q=28.0 size=    4608kB time=00:00:49.53 bitrate= 762.1kbits/s speed=3.55x    frame= 1295 fps= 90 q=28.0 size=    4608kB time=00:00:51.62 bitrate= 731.2kbits/s speed=3.57x    frame= 1346 fps= 90 q=28.0 size=    4864kB time=00:00:53.65 bitrate= 742.7kbits/s speed=3.59x    frame= 1383 fps= 89 q=28.0 size=    5120kB time=00:00:55.10 bitrate= 761.2kbits/s speed=3.56x    frame= 1423 fps= 89 q=28.0 size=    5376kB time=00:00:56.78 bitrate= 775.5kbits/s speed=3.55x    frame= 1463 fps= 89 q=28.0 size=    5632kB time=00:00:58.34 bitrate= 790.8kbits/s speed=3.54x    frame= 1518 fps= 89 q=28.0 size=    5888kB time=00:01:00.52 bitrate= 797.0kbits/s speed=3.56x    frame= 1576 fps= 90 q=28.0 size=    5888kB time=00:01:02.86 bitrate= 767.2kbits/s speed=3.59x    frame= 1643 fps= 91 q=28.0 size=    6144kB time=00:01:05.55 bitrate= 767.8kbits/s speed=3.64x    frame= 1715 fps= 93 q=28.0 size=    6400kB time=00:01:08.39 bitrate= 766.6kbits/s speed=3.69x    frame= 1766 fps= 93 q=28.0 size=    6656kB time=00:01:10.50 bitrate= 773.3kbits/s speed=3.71x    frame= 1813 fps= 93 q=28.0 size=    6912kB time=00:01:12.36 bitrate= 782.5kbits/s speed=3.71x    frame= 1856 fps= 93 q=28.0 size=    7168kB time=00:01:14.09 bitrate= 792.5kbits/s speed= 3.7x    frame= 1876 fps= 91 q=28.0 size=    7424kB time=00:01:14.85 bitrate= 812.4kbits/s speed=3.62x    frame= 1920 fps= 91 q=28.0 size=    7424kB time=00:01:16.65 bitrate= 793.4kbits/s speed=3.62x    frame= 1968 fps= 91 q=28.0 size=    7680kB time=00:01:18.54 bitrate= 801.0kbits/s speed=3.63x    frame= 2003 fps= 90 q=28.0 size=    7936kB time=00:01:19.91 bitrate= 813.5kbits/s speed=3.61x    frame= 2041 fps= 90 q=28.0 size=    8192kB time=00:01:21.47 bitrate= 823.7kbits/s speed=3.59x    frame= 2080 fps= 90 q=28.0 size=    8448kB time=00:01:23.00 bitrate= 833.7kbits/s speed=3.58x    frame= 2136 fps= 90 q=28.0 size=    8704kB time=00:01:25.26 bitrate= 836.2kbits/s speed= 3.6x    frame= 2183 fps= 90 q=28.0 size=    8960kB time=00:01:27.16 bitrate= 842.1kbits/s speed= 3.6x    frame= 2234 fps= 90 q=28.0 size=    9216kB time=00:01:29.17 bitrate= 846.6kbits/s speed=3.61x    frame= 2283 fps= 91 q=28.0 size=    9472kB time=00:01:31.15 bitrate= 851.2kbits/s speed=3.62x    frame= 2336 fps= 91 q=28.0 size=    9728kB time=00:01:33.29 bitrate= 854.2kbits/s speed=3.63x    frame= 2387 fps= 91 q=28.0 size=    9984kB time=00:01:35.27 bitrate= 858.5kbits/s speed=3.64x    frame= 2432 fps= 91 q=28.0 size=   10240kB time=00:01:37.13 bitrate= 863.6kbits/s speed=3.64x    frame= 2489 fps= 91 q=28.0 size=   10496kB time=00:01:39.37 bitrate= 865.3kbits/s speed=3.65x    frame= 2547 fps= 92 q=28.0 size=   10752kB time=00:01:41.76 bitrate= 865.6kbits/s speed=3.67x    frame= 2609 fps= 92 q=28.0 size=   10752kB time=00:01:44.17 bitrate= 845.5kbits/s speed=3.69x    frame= 2662 fps= 93 q=28.0 size=   11008kB time=00:01:46.32 bitrate= 848.1kbits/s speed= 3.7x    frame= 2723 fps= 93 q=28.0 size=   11264kB time=00:01:48.73 bitrate= 848.6kbits/s speed=3.72x    frame= 2774 fps= 93 q=28.0 size=   11520kB time=00:01:50.78 bitrate= 851.9kbits/s speed=3.73x    frame= 2821 fps= 93 q=28.0 size=   11520kB time=00:01:52.61 bitrate= 838.0kbits/s speed=3.73x    frame= 2865 fps= 93 q=28.0 size=   11776kB time=00:01:54.43 bitrate= 843.0kbits/s speed=3.72x    frame= 2915 fps= 93 q=28.0 size=   12032kB time=00:01:56.43 bitrate= 846.5kbits/s speed=3.73x    frame= 2966 fps= 93 q=28.0 size=   12288kB time=00:01:58.50 bitrate= 849.4kbits/s speed=3.73x    frame= 3016 fps= 93 q=28.0 size=   12544kB time=00:02:00.46 bitrate= 853.0kbits/s speed=3.73x    frame= 3073 fps= 94 q=28.0 size=   12800kB time=00:02:02.75 bitrate= 854.2kbits/s speed=3.74x    frame= 3133 fps= 94 q=28.0 size=   13056kB time=00:02:05.16 bitrate= 854.5kbits/s speed=3.76x    frame= 3181 fps= 94 q=28.0 size=   13312kB time=00:02:07.08 bitrate= 858.1kbits/s speed=3.76x    frame= 3220 fps= 94 q=28.0 size=   13824kB time=00:02:08.61 bitrate= 880.5kbits/s speed=3.75x    frame= 3258 fps= 94 q=28.0 size=   14080kB time=00:02:10.15 bitrate= 886.2kbits/s speed=3.74x    frame= 3310 fps= 94 q=28.0 size=   14336kB time=00:02:12.18 bitrate= 888.5kbits/s speed=3.74x    frame= 3361 fps= 94 q=28.0 size=   14592kB time=00:02:14.29 bitrate= 890.1kbits/s speed=3.75x    frame= 3403 fps= 94 q=28.0 size=   15104kB time=00:02:15.93 bitrate= 910.2kbits/s speed=3.74x    frame= 3436 fps= 93 q=28.0 size=   15360kB time=00:02:17.28 bitrate= 916.6kbits/s speed=3.73x    frame= 3474 fps= 93 q=28.0 size=   15616kB time=00:02:18.79 bitrate= 921.7kbits/s speed=3.72x    frame= 3515 fps= 93 q=28.0 size=   15872kB time=00:02:20.43 bitrate= 925.8kbits/s speed=3.71x    frame= 3557 fps= 93 q=28.0 size=   16384kB time=00:02:22.12 bitrate= 944.4kbits/s speed=3.71x    frame= 3605 fps= 93 q=28.0 size=   16640kB time=00:02:24.04 bitrate= 946.4kbits/s speed=3.71x    frame= 3667 fps= 93 q=28.0 size=   16896kB time=00:02:26.53 bitrate= 944.5kbits/s speed=3.72x    frame= 3726 fps= 93 q=28.0 size=   17152kB time=00:02:28.88 bitrate= 943.7kbits/s speed=3.74x    frame= 3780 fps= 94 q=28.0 size=   17408kB time=00:02:31.06 bitrate= 944.0kbits/s speed=3.74x    frame= 3833 fps= 94 q=28.0 size=   17664kB time=00:02:33.10 bitrate= 945.1kbits/s speed=3.75x    frame= 3893 fps= 94 q=28.0 size=   17920kB time=00:02:35.56 bitrate= 943.7kbits/s speed=3.76x    frame= 3952 fps= 94 q=28.0 size=   18176kB time=00:02:37.90 bitrate= 942.9kbits/s speed=3.77x    frame= 4011 fps= 95 q=28.0 size=   18176kB time=00:02:40.27 bitrate= 929.0kbits/s speed=3.78x    frame= 4068 fps= 95 q=28.0 size=   18432kB time=00:02:42.53 bitrate= 929.0kbits/s speed=3.79x    frame= 4129 fps= 95 q=28.0 size=   18688kB time=00:02:45.01 bitrate= 927.8kbits/s speed= 3.8x    frame= 4175 fps= 95 q=28.0 size=   18944kB time=00:02:46.82 bitrate= 930.2kbits/s speed= 3.8x    frame= 4232 fps= 95 q=28.0 size=   19200kB time=00:02:49.10 bitrate= 930.1kbits/s speed=3.81x    frame= 4294 fps= 96 q=28.0 size=   19456kB time=00:02:51.60 bitrate= 928.8kbits/s speed=3.82x    frame= 4357 fps= 96 q=28.0 size=   19712kB time=00:02:54.12 bitrate= 927.4kbits/s speed=3.84x    frame= 4415 fps= 96 q=28.0 size=   19968kB time=00:02:56.44 bitrate= 927.1kbits/s speed=3.85x    frame= 4467 fps= 96 q=28.0 size=   20224kB time=00:02:58.56 bitrate= 927.8kbits/s speed=3.85x    frame= 4535 fps= 97 q=28.0 size=   20480kB time=00:03:01.24 bitrate= 925.7kbits/s speed=3.87x    frame= 4607 fps= 97 q=28.0 size=   20480kB time=00:03:04.10 bitrate= 911.3kbits/s speed=3.88x    frame= 4683 fps= 98 q=28.0 size=   20736kB time=00:03:07.17 bitrate= 907.5kbits/s speed=3.91x    frame= 4690 fps= 97 q=-1.0 Lsize=   21153kB time=00:03:07.66 bitrate= 923.3kbits/s speed= 3.9x    
video:18019kB audio:2995kB subtitle:0kB other streams:0kB global headers:0kB muxing overhead: 0.662015%
[libx264 @ 0x5641760bea00] frame I:123   Avg QP:15.40  size: 16848
[libx264 @ 0x5641760bea00] frame P:1389  Avg QP:22.42  size:  5742
[libx264 @ 0x5641760bea00] frame B:3178  Avg QP:23.40  size:  2644
[libx264 @ 0x5641760bea00] consecutive B-frames:  8.4%  2.2%  4.6% 84.8%
[libx264 @ 0x5641760bea00] mb I  I16..4: 42.9% 51.6%  5.6%
[libx264 @ 0x5641760bea00] mb P  I16..4:  2.6% 11.9%  1.0%  P16..4: 24.1%  6.6%  3.2%  0.0%  0.0%    skip:50.6%
[libx264 @ 0x5641760bea00] mb B  I16..4:  0.3%  1.6%  0.2%  B16..8: 25.5%  4.0%  0.7%  direct: 2.3%  skip:65.3%  L0:45.1% L1:48.9% BI: 6.0%
[libx264 @ 0x5641760bea00] 8x8 transform intra:69.3% inter:80.6%
[libx264 @ 0x5641760bea00] coded y,uvDC,uvAC intra: 57.3% 43.7% 3.3% inter: 12.0% 10.3% 0.0%
[libx264 @ 0x5641760bea00] i16 v,h,dc,p: 55% 18%  7% 20%
[libx264 @ 0x5641760bea00] i8 v,h,dc,ddl,ddr,vr,hd,vl,hu: 19% 18% 27%  6%  6%  6%  6%  6%  7%
[libx264 @ 0x5641760bea00] i4 v,h,dc,ddl,ddr,vr,hd,vl,hu: 20% 23% 19%  6%  8%  7%  7%  5%  5%
[libx264 @ 0x5641760bea00] i8c dc,h,v,p: 61% 20% 17%  2%
[libx264 @ 0x5641760bea00] Weighted P-Frames: Y:4.1% UV:0.3%
[libx264 @ 0x5641760bea00] ref P L0: 56.1% 15.3% 20.3%  8.0%  0.3%
[libx264 @ 0x5641760bea00] ref B L0: 87.0% 10.5%  2.6%
[libx264 @ 0x5641760bea00] ref B L1: 94.9%  5.1%
[libx264 @ 0x5641760bea00] kb/s:786.81
[aac @ 0x564175c77700] Qavg: 529.099
	Command being timed: "/usr/bin/ffmpeg -i ../.././Samples/matrixbench_mpeg2.mpg -c:v libx264 -f mov /home/aleksandr/Pract/Samples/matrixbench_mpeg2.mpg_tc/output_tc1.mov"
	User time (seconds): 166.50
	System time (seconds): 0.97
	Percent of CPU this job got: 347%
	Elapsed (wall clock) time (h:mm:ss or m:ss): 0:48.24
	Average shared text size (kbytes): 0
	Average unshared data size (kbytes): 0
	Average stack size (kbytes): 0
	Average total size (kbytes): 0
	Maximum resident set size (kbytes): 165840
	Average resident set size (kbytes): 0
	Major (requiring I/O) page faults: 2
	Minor (reclaiming a frame) page faults: 28935
	Voluntary context switches: 59982
	Involuntary context switches: 29393
	Swaps: 0
	File system inputs: 238328
	File system outputs: 42368
	Socket messages sent: 0
	Socket messages received: 0
	Signals delivered: 0
	Page size (bytes): 4096
	Exit status: 0
